<svg id="visual" viewBox="0 0 900 600" width="900" height="600" xmlns="http://www.w3.org/2000/svg" xmlns:xlink="http://www.w3.org/1999/xlink" version="1.1"><rect x="0" y="0" width="900" height="600" fill="#e9e9e9"></rect><defs><linearGradient id="grad1_0" x1="33.3%" y1="0%" x2="100%" y2="100%"><stop offset="20%" stop-color="#fbae3c" stop-opacity="1"></stop><stop offset="80%" stop-color="#fbae3c" stop-opacity="1"></stop></linearGradient></defs><defs><linearGradient id="grad1_1" x1="33.3%" y1="0%" x2="100%" y2="100%"><stop offset="20%" stop-color="#fbae3c" stop-opacity="1"></stop><stop offset="80%" stop-color="#e9e9e9" stop-opacity="1"></stop></linearGradient></defs><defs><linearGradient id="grad2_0" x1="0%" y1="0%" x2="66.7%" y2="100%"><stop offset="20%" stop-color="#fbae3c" stop-opacity="1"></stop><stop offset="80%" stop-color="#fbae3c" stop-opacity="1"></stop></linearGradient></defs><defs><linearGradient id="grad2_1" x1="0%" y1="0%" x2="66.7%" y2="100%"><stop offset="20%" stop-color="#e9e9e9" stop-opacity="1"></stop><stop offset="80%" stop-color="#fbae3c" stop-opacity="1"></stop></linearGradient></defs><g transform="translate(900, 0)"><path d="M0 270.4C-50.1 264.9 -100.1 259.5 -135.2 234.2C-170.3 208.9 -190.4 163.8 -210.4 121.5C-230.5 79.2 -250.4 39.6 -270.4 0L0 0Z" fill="#f9cb95"></path><path d="M0 135.2C-25 132.5 -50.1 129.7 -67.6 117.1C-85.1 104.5 -95.2 81.9 -105.2 60.8C-115.2 39.6 -125.2 19.8 -135.2 0L0 0Z" fill="#fbae3c"></path></g><g transform="translate(0, 600)"><path d="M0 -270.4C51.1 -265.5 102.2 -260.7 135.2 -234.2C168.2 -207.7 183.1 -159.6 202.6 -117C222.2 -74.4 246.3 -37.2 270.4 0L0 0Z" fill="#f9cb95"></path><path d="M0 -135.2C25.6 -132.8 51.1 -130.3 67.6 -117.1C84.1 -103.9 91.6 -79.8 101.3 -58.5C111.1 -37.2 123.1 -18.6 135.2 0L0 0Z" fill="#fbae3c"></path></g></svg>